# xmcd
#
# Track frame offsets:
#	150
#	13084
#	26925
#	39757
#	52952
#	66675
#	80160
#	93595
#	107607
#	121302
#	134010
#	145642
#
# Disc length: 2121 seconds
#
# Revision: 0
# Processed by: cddbd v1.5.2PL0 Copyright (c) Steve Scherf et al.
# Submitted via: dBpowerAMP V4.0
#
DISCID=aa08470c
DTITLE=B.B.King - Singin' The Blues
DYEAR=1900
DGENRE=Blues
TTITLE0=Please Love Me
TTITLE1=Yo Upset Me Baby
TTITLE2=Every Day I Have The Blues
TTITLE3=Bad Luck
TTITLE4=3 O'clock Blues
TTITLE5=Blind Love
TTITLE6=Woke Up This Morning
TTITLE7=You Know I Love You
TTITLE8=Sweet Little Angel
TTITLE9=Ten Long Years
TTITLE10=Did You Ever Love A Women
TTITLE11=Crying Won't Help You
EXTD=
EXTT0=
EXTT1=
EXTT2=
EXTT3=
EXTT4=
EXTT5=
EXTT6=
EXTT7=
EXTT8=
EXTT9=
EXTT10=
EXTT11=
PLAYORDER=
